<svg xmlns="http://www.w3.org/2000/svg" width="430" height="430" style="width:100%;height:100%;transform:translate3d(0,0,0);content-visibility:visible" viewBox="0 0 430 430"><defs><clipPath id="f"><path d="M0 0h430v430H0z"/></clipPath><clipPath id="o"><path d="M0 0h430v430H0z"/></clipPath><clipPath id="m"><path d="M0 0h430v430H0z"/></clipPath><clipPath id="j"><path d="M0 0h430v430H0z"/></clipPath><clipPath id="k"><path d="M0 0h430v430H0z"/></clipPath><clipPath id="g"><path d="M0 0h430v430H0z"/></clipPath><clipPath id="h"><path d="M0 0h430v430H0z"/></clipPath><mask id="n" mask-type="alpha"><use xmlns:ns1="http://www.w3.org/1999/xlink" ns1:href="#a"/></mask><mask id="l" mask-type="alpha"><g filter="url(#b)"><path fill="#fff" d="M0 0h430v430H0z" opacity="0"/><use xmlns:ns2="http://www.w3.org/1999/xlink" ns2:href="#c"/></g></mask><mask id="i" mask-type="alpha"><g filter="url(#d)"><path fill="#fff" d="M0 0h430v430H0z" opacity="0"/><use xmlns:ns3="http://www.w3.org/1999/xlink" ns3:href="#e"/></g></mask><filter id="b" width="100%" height="100%" x="0%" y="0%" filterUnits="objectBoundingBox"><feComponentTransfer in="SourceGraphic"><feFuncA tableValues="1.0 0.0" type="table"/></feComponentTransfer></filter><filter id="d" width="100%" height="100%" x="0%" y="0%" filterUnits="objectBoundingBox"><feComponentTransfer in="SourceGraphic"><feFuncA tableValues="1.0 0.0" type="table"/></feComponentTransfer></filter><path id="c" fill-opacity="0" stroke-linecap="round" stroke-linejoin="round" style="display:none"/><path id="e" fill-opacity="0" stroke-linecap="round" stroke-linejoin="round" style="display:none"/><g id="a" opacity="1"><path fill="#3A3347" d="M86.656 130.57v210.377H57.712a3.362 3.362 0 0 1-3.36-3.36V133.93a3.362 3.362 0 0 1 3.36-3.36h28.944z"/><path fill-opacity="0" stroke="#3A3347" stroke-width=".96" d="M86.656 130.57v210.377H57.712a3.362 3.362 0 0 1-3.36-3.36V133.93a3.362 3.362 0 0 1 3.36-3.36h28.944z"/></g></defs><g clip-path="url(#f)"><g clip-path="url(#g)" style="display:none"><g clip-path="url(#h)" mask="url(#i)" style="display:none"><path class="quinary" style="display:none"/><path class="quinary" style="mix-blend-mode:multiply;display:none"/><g style="display:none"><path class="secondary"/><path fill="none" class="secondary"/></g><path class="secondary" style="mix-blend-mode:multiply;display:none"/><g style="display:none"><path class="secondary"/><path fill="none" class="secondary"/></g><g style="mix-blend-mode:multiply;display:none"><path class="secondary"/><path fill="none" class="secondary"/></g><path class="senary" style="display:none"/><path class="senary" style="display:none"/><path class="quaternary" style="display:none"/><path class="quaternary" style="mix-blend-mode:multiply;display:none"/><g style="display:none"><path class="tertiary"/><path fill="none" class="tertiary"/></g><g style="mix-blend-mode:multiply;display:none"><path class="secondary"/><path fill="none" class="secondary"/></g><path fill="none" class="primary" style="display:none"/><path fill="none" class="primary" style="display:none"/><path fill="none" class="primary" style="display:none"/><path fill="none" class="primary" style="display:none"/></g><path fill="none" class="septenary" style="display:none"/></g><g clip-path="url(#j)" style="display:none"><g clip-path="url(#k)" mask="url(#l)" style="display:none"><path class="quinary" style="display:none"/><path class="quinary" style="mix-blend-mode:multiply;display:none"/><g style="display:none"><path class="secondary"/><path fill="none" class="secondary"/></g><path class="secondary" style="mix-blend-mode:multiply;display:none"/><g style="display:none"><path class="secondary"/><path fill="none" class="secondary"/></g><g style="mix-blend-mode:multiply;display:none"><path class="secondary"/><path fill="none" class="secondary"/></g><path class="senary" style="display:none"/><path class="senary" style="display:none"/><path class="quaternary" style="display:none"/><path class="quaternary" style="mix-blend-mode:multiply;display:none"/><g style="display:none"><path class="tertiary"/><path fill="none" class="tertiary"/></g><g style="mix-blend-mode:multiply;display:none"><path class="secondary"/><path fill="none" class="secondary"/></g><path fill="none" class="primary" style="display:none"/><path fill="none" class="primary" style="display:none"/><path fill="none" class="primary" style="display:none"/><path fill="none" class="primary" style="display:none"/></g><path fill="none" class="septenary" style="display:none"/></g><g clip-path="url(#m)" style="display:block"><path fill="#FFC738" d="M10.119-16.825h-26.944a3.5 3.5 0 0 0-3.5 3.5v26.65a3.5 3.5 0 0 0 3.5 3.5h26.944a3.5 3.5 0 0 0 3.5-3.5v-26.65a3.5 3.5 0 0 0-3.5-3.5z" class="quinary" style="display:block" transform="matrix(.96 0 0 .96 107.655 118.864)"/><g opacity=".5" style="mix-blend-mode:multiply;display:block"><path fill="#FFC738" d="M91.096 102.712h16.147v32.304H91.096a3.362 3.362 0 0 1-3.36-3.36v-25.584a3.362 3.362 0 0 1 3.36-3.36z" class="quinary" opacity="1"/></g><g style="display:block"><path fill="#3A3347" d="M275.125 129.73h97.754a3.362 3.362 0 0 1 3.36 3.36v205.594a3.362 3.362 0 0 1-3.36 3.36H57.372a3.362 3.362 0 0 1-3.36-3.36V133.09a3.362 3.362 0 0 1 3.36-3.36h94.89l15.783-39.448a3.351 3.351 0 0 1 3.11-2.141h85.921a3.352 3.352 0 0 1 3.13 2.14l14.92 39.45z" class="secondary"/><path fill="none" stroke="#3A3347" stroke-width=".96" d="M275.125 129.73h97.754a3.362 3.362 0 0 1 3.36 3.36v205.594a3.362 3.362 0 0 1-3.36 3.36H57.372a3.362 3.362 0 0 1-3.36-3.36V133.09a3.362 3.362 0 0 1 3.36-3.36h94.89l15.783-39.448a3.351 3.351 0 0 1 3.11-2.141h85.921a3.352 3.352 0 0 1 3.13 2.14l14.92 39.45z" class="secondary"/></g><path fill="#3A3347" fill-opacity=".5" d="m25.08-22.312-1 2.23L8.57 21.01h-33.65l15.53-41.092a3.49 3.49 0 0 1 3.25-2.23h31.38z" class="secondary" style="mix-blend-mode:multiply;display:block" transform="matrix(.96 0 0 .96 178.05 109.431)"/><g opacity=".5" style="mix-blend-mode:multiply;display:block"><path fill="#3A3347" d="M157.64 183.237a79.425 79.425 0 0 1 44.13-13.387 79.52 79.52 0 0 1 79.428 79.42 79.429 79.429 0 1 1-123.557-66.033z" class="secondary" opacity="1"/></g><g opacity=".5" style="mix-blend-mode:multiply;display:block"><g opacity="1"><path fill="#3A3347" d="M86.656 130.57v210.377H57.712a3.362 3.362 0 0 1-3.36-3.36V133.93a3.362 3.362 0 0 1 3.36-3.36h28.944z" class="secondary"/><path fill="none" stroke="#3A3347" stroke-width=".96" d="M86.656 130.57v210.377H57.712a3.362 3.362 0 0 1-3.36-3.36V133.93a3.362 3.362 0 0 1 3.36-3.36h28.944z" class="secondary"/></g></g><g opacity=".5" style="mix-blend-mode:multiply;display:block"><g mask="url(#n)" opacity="1"><path fill="#3A3347" d="M158.478 180.382a80.27 80.27 0 0 1 44.593-13.528 80.344 80.344 0 0 1 80.267 80.267 80.27 80.27 0 0 1-49.55 74.156 80.267 80.267 0 0 1-75.31-140.895z" class="secondary"/><path fill="none" stroke="#3A3347" stroke-width=".96" d="M158.478 180.382a80.27 80.27 0 0 1 44.593-13.528 80.344 80.344 0 0 1 80.267 80.267 80.27 80.27 0 0 1-49.55 74.156 80.267 80.267 0 0 1-75.31-140.895z" class="secondary"/></g></g><path fill="none" stroke="#121331" stroke-linecap="round" stroke-linejoin="round" stroke-width="7" d="M-161.07-106.07v212.14h322.14v-212.14h-322.14z" class="primary" style="display:block" transform="translate(215 236.51) scale(.99999)"/><path fill="none" stroke="#121331" stroke-linecap="round" stroke-linejoin="round" stroke-width="7" d="M-16.825 13.325v-26.65h33.65v26.65" class="primary" style="display:block" transform="translate(104.405 117.114) scale(1.00001)"/><path fill="none" stroke="#121331" stroke-linecap="round" stroke-linejoin="round" stroke-width="7" d="m-61.15 21 16.4-42h89.5l16.4 42" class="primary" style="display:block" transform="translate(215 109.419) scale(.99999)"/><g style="display:none"><path fill="none" class="primary"/><path class="secondary"/><path fill="none" class="primary"/><path fill="none" class="primary"/><path fill="none" class="primary"/></g><path fill="#646E78" d="M-46.452-69.519A83.606 83.606 0 0 1 0-83.61 83.707 83.707 0 0 1 83.61-.01 83.61 83.61 0 1 1-46.452-69.519z" class="senary" style="display:block" transform="matrix(.95 0 0 .95 215.251 235.759)"/><path fill="#EBE6EF" d="M-32.223-48.225A58.002 58.002 0 0 1 0-58 58.06 58.06 0 0 1 58 0a58.002 58.002 0 0 1-99.012 41.012 58.003 58.003 0 0 1-12.573-63.208 58 58 0 0 1 21.362-26.029z" class="quaternary" style="display:block" transform="translate(215.5 235.749) scale(.92999)"/><g opacity=".5" style="mix-blend-mode:multiply;display:block"><path fill="#EBE6EF" d="M201.058 268.371a51.362 51.362 0 0 0 31.912 11.1 51.256 51.256 0 0 0 18.358-3.44 53.939 53.939 0 1 1-41.217-93.929 51.364 51.364 0 0 0-9.053 86.27z" class="quaternary" opacity="1"/></g><path fill="none" stroke="#121331" stroke-linecap="round" stroke-linejoin="round" stroke-width="7" d="M66.614 44.499A80.11 80.11 0 1 0-66.614-44.499 80.11 80.11 0 0 0 66.614 44.499z" class="primary" style="display:block" transform="translate(215 236.51) scale(.99999)"/><g fill="none" style="display:block"><path d="M350.962 163.757c0 9.056-7.341 16.397-16.397 16.397-9.055 0-16.4-7.341-16.4-16.397 0-9.055 7.345-16.397 16.4-16.397 9.056 0 16.397 7.342 16.397 16.397z" class="tertiary"/><path stroke="#08A88A" stroke-linecap="round" stroke-linejoin="round" stroke-width="8.053" d="M350.962 163.757c0 9.056-7.341 16.397-16.397 16.397-9.055 0-16.4-7.341-16.4-16.397 0-9.055 7.345-16.397 16.4-16.397 9.056 0 16.397 7.342 16.397 16.397z" class="tertiary"/></g><g opacity="0" style="display:block"><g opacity="1"><path fill="#08A88A" d="M193.006 38.942c-98.657-5.17-182.891 72.05-188.154 172.467-5.262 100.417 70.439 186.02 169.095 191.19 98.656 5.17 182.89-72.05 188.153-172.467 5.263-100.418-70.438-186.02-169.094-191.19z" class="tertiary"/><path fill="none" stroke="#08A88A" stroke-linecap="round" stroke-linejoin="round" stroke-width="3.85" d="M0-22.75c-8.837 0-16 10.186-16 22.75s7.163 22.75 16 22.75S16 12.564 16 0 8.837-22.75 0-22.75z" class="tertiary" transform="matrix(11.164 .58508 -.41887 7.99247 183.476 220.77)"/></g></g><g opacity="0" style="display:block"><g opacity="1"><path fill="#08A88A" d="M264.256 109.89c-28.957-1.517-53.757 22.607-55.396 53.88-1.639 31.273 20.504 57.858 49.46 59.375 28.957 1.518 53.757-22.606 55.396-53.88 1.64-31.273-20.503-57.857-49.46-59.374z" class="tertiary"/><path fill="none" stroke="#08A88A" stroke-linecap="round" stroke-linejoin="round" stroke-width="3.85" d="M0-22.75c-8.837 0-16 10.186-16 22.75s7.163 22.75 16 22.75S16 12.564 16 0 8.837-22.75 0-22.75z" class="tertiary" transform="matrix(3.27675 .17173 -.13045 2.48911 261.288 166.518)"/></g></g></g><g clip-path="url(#o)" style="display:none"><path class="quinary" style="display:none"/><path class="quinary" style="mix-blend-mode:multiply;display:none"/><g style="display:none"><path class="secondary"/><path fill="none" class="secondary"/></g><path class="secondary" style="mix-blend-mode:multiply;display:none"/><g style="mix-blend-mode:multiply;display:none"><path class="secondary"/><path fill="none" class="secondary"/></g><g style="display:none"><path class="tertiary"/><path fill="none" class="tertiary"/></g><g style="mix-blend-mode:multiply;display:none"><path class="secondary"/><path fill="none" class="secondary"/></g><g fill="none" style="display:none"><path class="primary"/><path class="primary"/><path class="primary"/></g><path class="senary" style="display:none"/><g style="display:none"><path class="senary"/><path fill="none" class="primary"/></g><path class="quaternary" style="display:none"/><path class="quaternary" style="mix-blend-mode:multiply;display:none"/><path fill="none" class="primary" style="display:none"/></g></g></svg>