<?xml version="1.0" encoding="UTF-8"?>
<svg version="1.1" xmlns="http://www.w3.org/2000/svg" width="400" height="400">
<path d="M0 0 C0.90234375 0.31710938 1.8046875 0.63421875 2.734375 0.9609375 C14.37341963 5.29777897 24.84212373 11.95167769 35 19 C35.76054687 19.51046875 36.52109375 20.0209375 37.3046875 20.546875 C38.90919495 21.64232185 40.46269636 22.81208355 42 24 C42 24.66 42 25.32 42 26 C42.556875 26.2475 43.11375 26.495 43.6875 26.75 C46.42410913 28.22924818 48.67650869 29.93467439 51 32 C51 32.66 51 33.32 51 34 C52.32 34.66 53.64 35.32 55 36 C55 36.66 55 37.32 55 38 C55.55300781 38.20109375 56.10601562 38.4021875 56.67578125 38.609375 C59.91985909 40.55036947 61.92598917 43.2897818 64.1875 46.25 C64.66872314 46.87406738 65.14994629 47.49813477 65.64575195 48.14111328 C76.4232634 62.3107215 85.7240383 77.90683901 91 95 C91.33644531 96.06734375 91.67289062 97.1346875 92.01953125 98.234375 C101.24650886 129.88947422 100.28889686 163.09188199 89 194 C88.60941406 195.07378906 88.21882813 196.14757812 87.81640625 197.25390625 C78.76640389 220.27034824 63.78250235 242.8108707 44 258 C43.34 258 42.68 258 42 258 C42 258.66 42 259.32 42 260 C38.21880214 262.97250236 34.06920322 265.44167589 30 268 C29.36819824 268.40347656 28.73639648 268.80695313 28.08544922 269.22265625 C16.92145758 276.30456196 5.4490127 281.57398442 -7 286 C-8.76730469 286.63228516 -8.76730469 286.63228516 -10.5703125 287.27734375 C-47.60637823 299.10211173 -88.79594509 293.32392587 -123 276 C-127.75018938 273.47307277 -132.39534399 270.78352196 -137 268 C-137 267.34 -137 266.68 -137 266 C-137.721875 265.74992187 -138.44375 265.49984375 -139.1875 265.2421875 C-142.25219604 263.88861341 -144.42381931 262.25839963 -147 260.125 C-148.2375 259.10792969 -148.2375 259.10792969 -149.5 258.0703125 C-150.325 257.38710938 -151.15 256.70390625 -152 256 C-152.928125 255.29617188 -153.85625 254.59234375 -154.8125 253.8671875 C-155.534375 253.25101562 -156.25625 252.63484375 -157 252 C-157 251.34 -157 250.68 -157 250 C-158.32 249.34 -159.64 248.68 -161 248 C-161 247.34 -161 246.68 -161 246 C-161.85658203 245.6596875 -161.85658203 245.6596875 -162.73046875 245.3125 C-174.51380811 238.49803868 -182.55837781 220.74151266 -189 209 C-189.41378906 208.24589844 -189.82757813 207.49179687 -190.25390625 206.71484375 C-193.06191709 201.35209363 -195.08826545 195.73520366 -197 190 C-197.34160156 188.99582031 -197.68320313 187.99164063 -198.03515625 186.95703125 C-209.59066092 150.1815278 -205.73335652 107.33545331 -188.16796875 73.13671875 C-185.55710526 68.360323 -182.7813145 63.67854528 -180 59 C-179.47535156 58.05511719 -178.95070313 57.11023438 -178.41015625 56.13671875 C-177.94480469 55.43160156 -177.47945312 54.72648437 -177 54 C-176.34 54 -175.68 54 -175 54 C-174.690625 52.9790625 -174.690625 52.9790625 -174.375 51.9375 C-172.57104973 48.08360625 -170.0989655 44.92212236 -167 42 C-166.34 42 -165.68 42 -165 42 C-164.72671875 41.41347656 -164.4534375 40.82695313 -164.171875 40.22265625 C-153.61679929 20.20319598 -123.16022913 5.41754629 -102.68701172 -1.0949707 C-100.6711354 -1.71650554 -98.65182959 -2.32371529 -96.62890625 -2.921875 C-94.44930948 -3.56941936 -92.28121927 -4.26155359 -90.14453125 -5.0390625 C-61.64173328 -13.7492343 -27.57774841 -10.12926778 0 0 Z " fill="#CCCCCC" transform="translate(253,58)"/>
<path d="M0 0 C1.18456787 0.03988037 1.18456787 0.03988037 2.39306641 0.08056641 C25.64941686 1.13742689 50.15672516 14.30033192 66 31 C73.65915765 40.46236959 78.86937712 50.2057516 81.75 62 C81.97042969 62.87011719 82.19085938 63.74023438 82.41796875 64.63671875 C82.9535476 66.75574811 83.47795694 68.87759543 84 71 C68.42874503 81.74086566 52.87976593 90.64318083 35 97 C33.82179687 97.42152344 32.64359375 97.84304688 31.4296875 98.27734375 C-5.60637823 110.10211173 -46.79594509 104.32392587 -81 87 C-85.75018938 84.47307277 -90.39534399 81.78352196 -95 79 C-95 78.34 -95 77.68 -95 77 C-96.11375 76.5978125 -96.11375 76.5978125 -97.25 76.1875 C-102.12639405 74.08178439 -102.12639405 74.08178439 -104 72 C-104.30624816 69.09064251 -104.30459261 66.86415311 -104 64 C-103.91105469 62.91912109 -103.91105469 62.91912109 -103.8203125 61.81640625 C-102.6211389 53.14433377 -98.06520938 45.6199041 -94 38 C-93.34 38 -92.68 38 -92 38 C-91.75765625 37.27167969 -91.5153125 36.54335938 -91.265625 35.79296875 C-84.69856692 21.30084984 -64.92927484 11.74220684 -51 6 C-50.21367187 5.67386719 -49.42734375 5.34773437 -48.6171875 5.01171875 C-46.42842528 4.20029549 -44.2624601 3.57649224 -42 3 C-40.4221875 2.58427734 -40.4221875 2.58427734 -38.8125 2.16015625 C-25.97850221 -0.740862 -13.09203649 -0.47737008 0 0 Z " fill="#999999" transform="translate(211,247)"/>
<path d="M0 0 C6.0186558 4.95271676 10.22488409 10.62648021 13.93359375 17.42578125 C14.46984375 18.27140625 15.00609375 19.11703125 15.55859375 19.98828125 C21.4041501 30.35085841 21.92203457 46.86356423 18.921875 58.2734375 C17.72092995 61.41464813 16.42693429 64.41386061 14.93359375 67.42578125 C14.44761719 68.44414062 13.96164063 69.4625 13.4609375 70.51171875 C6.93490687 82.96291785 -4.57885777 92.85087682 -17.69140625 97.73828125 C-32.08613352 101.82236666 -48.61446882 101.07942772 -62.06640625 94.42578125 C-66.02571855 92.05118742 -69.56683039 89.4320504 -73.06640625 86.42578125 C-73.70964844 85.88179688 -74.35289062 85.3378125 -75.015625 84.77734375 C-84.18590805 76.32831892 -91.30339554 64.71877393 -92.23681641 52.12695312 C-92.46078721 46.55305895 -92.40358363 40.9935308 -92.06640625 35.42578125 C-92.02628418 34.74064453 -91.98616211 34.05550781 -91.94482422 33.34960938 C-91.48033223 28.15033664 -89.9208804 24.11905519 -87.56640625 19.55078125 C-87.2118335 18.85605713 -86.85726074 18.16133301 -86.49194336 17.44555664 C-79.78645134 4.8275062 -69.34062372 -4.42069903 -56.06640625 -9.57421875 C-55.20015625 -9.96609375 -54.33390625 -10.35796875 -53.44140625 -10.76171875 C-34.59155852 -17.21035087 -15.22057233 -11.59525643 0 0 Z " fill="#999999" transform="translate(236.06640625,137.57421875)"/>
<path d="M0 0 C0.66 0.33 1.32 0.66 2 1 C0.30098781 2.78063734 -1.40827276 4.54907422 -3.125 6.3125 C-3.599375 6.81201172 -4.07375 7.31152344 -4.5625 7.82617188 C-7.75650463 11.08491984 -10.75440785 13.15436424 -15 15 C-13.88318655 11.64955966 -12.9563104 10.85083657 -10.3125 8.625 C-9.59707031 8.01785156 -8.88164063 7.41070312 -8.14453125 6.78515625 C-7.43683594 6.19605469 -6.72914062 5.60695313 -6 5 C-5.38511719 4.48308594 -4.77023438 3.96617188 -4.13671875 3.43359375 C-2.76301179 2.2828273 -1.38231603 1.14041072 0 0 Z " fill="#E2E2E2" transform="translate(107,80)"/>
<path d="M0 0 C0.33 0.66 0.66 1.32 1 2 C0.04882866 3.1725131 -0.91117009 4.33787015 -1.875 5.5 C-2.40867187 6.1496875 -2.94234375 6.799375 -3.4921875 7.46875 C-3.98976563 7.9740625 -4.48734375 8.479375 -5 9 C-5.66 9 -6.32 9 -7 9 C-6.34 7.68 -5.68 6.36 -5 5 C-4.34 5 -3.68 5 -3 5 C-2.690625 4.360625 -2.38125 3.72125 -2.0625 3.0625 C-1 1 -1 1 0 0 Z " fill="#DDDDDD" transform="translate(91,95)"/>
<path d="M0 0 C0 0.99 0 1.98 0 3 C-2.5 5.1875 -2.5 5.1875 -5 7 C-5.66 6.34 -6.32 5.68 -7 5 C-4.87219421 2.65941363 -2.88437779 1.29299694 0 0 Z " fill="#DFDFDF" transform="translate(116,74)"/>
</svg>
